<mxfile host="app.diagrams.net" agent="Mozilla/5.0 (Windows NT 10.0; Win64; x64) AppleWebKit/537.36 (KHTML, like Gecko) Chrome/129.0.0.0 Safari/537.36 Edg/129.0.0.0" version="24.7.17">
  <diagram name="Page-1" id="aJMHVCbuqMzmmd-yOvQv">
    <mxGraphModel dx="-650" dy="3097" grid="1" gridSize="10" guides="1" tooltips="1" connect="1" arrows="1" fold="1" page="1" pageScale="1" pageWidth="827" pageHeight="1169" math="0" shadow="0">
      <root>
        <mxCell id="0" />
        <mxCell id="1" parent="0" />
        <mxCell id="WkxCVV-0QKAh26MaysCN-1" style="rounded=0;orthogonalLoop=1;jettySize=auto;html=1;entryX=0;entryY=0.5;entryDx=0;entryDy=0;" edge="1" parent="1" source="WkxCVV-0QKAh26MaysCN-4" target="WkxCVV-0QKAh26MaysCN-17">
          <mxGeometry relative="1" as="geometry" />
        </mxCell>
        <mxCell id="WkxCVV-0QKAh26MaysCN-2" style="rounded=0;orthogonalLoop=1;jettySize=auto;html=1;entryX=0;entryY=0.5;entryDx=0;entryDy=0;" edge="1" parent="1" source="WkxCVV-0QKAh26MaysCN-4" target="WkxCVV-0QKAh26MaysCN-18">
          <mxGeometry relative="1" as="geometry" />
        </mxCell>
        <mxCell id="WkxCVV-0QKAh26MaysCN-3" style="rounded=0;orthogonalLoop=1;jettySize=auto;html=1;entryX=0;entryY=0.5;entryDx=0;entryDy=0;" edge="1" parent="1" source="WkxCVV-0QKAh26MaysCN-4" target="WkxCVV-0QKAh26MaysCN-19">
          <mxGeometry relative="1" as="geometry" />
        </mxCell>
        <mxCell id="WkxCVV-0QKAh26MaysCN-4" value="Administrator" style="shape=umlActor;verticalLabelPosition=bottom;verticalAlign=top;html=1;outlineConnect=0;" vertex="1" parent="1">
          <mxGeometry x="2520" y="-210" width="30" height="60" as="geometry" />
        </mxCell>
        <mxCell id="WkxCVV-0QKAh26MaysCN-5" style="rounded=0;orthogonalLoop=1;jettySize=auto;html=1;entryX=0;entryY=0.5;entryDx=0;entryDy=0;" edge="1" parent="1" source="WkxCVV-0QKAh26MaysCN-7" target="WkxCVV-0QKAh26MaysCN-14">
          <mxGeometry relative="1" as="geometry" />
        </mxCell>
        <mxCell id="WkxCVV-0QKAh26MaysCN-6" style="rounded=0;orthogonalLoop=1;jettySize=auto;html=1;entryX=0;entryY=0.5;entryDx=0;entryDy=0;" edge="1" parent="1" source="WkxCVV-0QKAh26MaysCN-7" target="WkxCVV-0QKAh26MaysCN-15">
          <mxGeometry relative="1" as="geometry" />
        </mxCell>
        <mxCell id="WkxCVV-0QKAh26MaysCN-7" value="Pasenger" style="shape=umlActor;verticalLabelPosition=bottom;verticalAlign=top;html=1;outlineConnect=0;" vertex="1" parent="1">
          <mxGeometry x="2500" y="-480" width="30" height="60" as="geometry" />
        </mxCell>
        <mxCell id="WkxCVV-0QKAh26MaysCN-8" style="rounded=0;orthogonalLoop=1;jettySize=auto;html=1;entryX=1;entryY=0.5;entryDx=0;entryDy=0;" edge="1" parent="1" source="WkxCVV-0QKAh26MaysCN-12" target="WkxCVV-0QKAh26MaysCN-20">
          <mxGeometry relative="1" as="geometry" />
        </mxCell>
        <mxCell id="WkxCVV-0QKAh26MaysCN-9" style="rounded=0;orthogonalLoop=1;jettySize=auto;html=1;entryX=1;entryY=0.5;entryDx=0;entryDy=0;" edge="1" parent="1" source="WkxCVV-0QKAh26MaysCN-12" target="WkxCVV-0QKAh26MaysCN-21">
          <mxGeometry relative="1" as="geometry" />
        </mxCell>
        <mxCell id="WkxCVV-0QKAh26MaysCN-10" style="rounded=0;orthogonalLoop=1;jettySize=auto;html=1;entryX=1;entryY=0.5;entryDx=0;entryDy=0;" edge="1" parent="1" source="WkxCVV-0QKAh26MaysCN-12" target="WkxCVV-0QKAh26MaysCN-22">
          <mxGeometry relative="1" as="geometry" />
        </mxCell>
        <mxCell id="WkxCVV-0QKAh26MaysCN-11" style="rounded=0;orthogonalLoop=1;jettySize=auto;html=1;entryX=1;entryY=0.5;entryDx=0;entryDy=0;" edge="1" parent="1" source="WkxCVV-0QKAh26MaysCN-12" target="WkxCVV-0QKAh26MaysCN-23">
          <mxGeometry relative="1" as="geometry" />
        </mxCell>
        <mxCell id="WkxCVV-0QKAh26MaysCN-12" value="Agent" style="shape=umlActor;verticalLabelPosition=bottom;verticalAlign=top;html=1;outlineConnect=0;" vertex="1" parent="1">
          <mxGeometry x="3260" y="-450" width="30" height="60" as="geometry" />
        </mxCell>
        <mxCell id="WkxCVV-0QKAh26MaysCN-13" value="Search Flights" style="ellipse;whiteSpace=wrap;html=1;" vertex="1" parent="1">
          <mxGeometry x="2690" y="-574" width="120" height="80" as="geometry" />
        </mxCell>
        <mxCell id="WkxCVV-0QKAh26MaysCN-14" value="Book Ticket" style="ellipse;whiteSpace=wrap;html=1;" vertex="1" parent="1">
          <mxGeometry x="2690" y="-470" width="120" height="80" as="geometry" />
        </mxCell>
        <mxCell id="WkxCVV-0QKAh26MaysCN-15" value="Manage Personal Reservations&amp;nbsp;" style="ellipse;whiteSpace=wrap;html=1;" vertex="1" parent="1">
          <mxGeometry x="2690" y="-360" width="120" height="80" as="geometry" />
        </mxCell>
        <mxCell id="WkxCVV-0QKAh26MaysCN-16" style="rounded=0;orthogonalLoop=1;jettySize=auto;html=1;entryX=-0.008;entryY=0.615;entryDx=0;entryDy=0;entryPerimeter=0;" edge="1" parent="1" source="WkxCVV-0QKAh26MaysCN-7" target="WkxCVV-0QKAh26MaysCN-13">
          <mxGeometry relative="1" as="geometry" />
        </mxCell>
        <mxCell id="WkxCVV-0QKAh26MaysCN-17" value="Manage Flight Schedules" style="ellipse;whiteSpace=wrap;html=1;" vertex="1" parent="1">
          <mxGeometry x="2680" y="-247" width="120" height="80" as="geometry" />
        </mxCell>
        <mxCell id="WkxCVV-0QKAh26MaysCN-18" value="Handle User Accounts" style="ellipse;whiteSpace=wrap;html=1;" vertex="1" parent="1">
          <mxGeometry x="2680" y="-143" width="120" height="80" as="geometry" />
        </mxCell>
        <mxCell id="WkxCVV-0QKAh26MaysCN-19" value="Resolve Technical Support Request" style="ellipse;whiteSpace=wrap;html=1;" vertex="1" parent="1">
          <mxGeometry x="2680" y="-33" width="120" height="80" as="geometry" />
        </mxCell>
        <mxCell id="WkxCVV-0QKAh26MaysCN-20" value="Assist Passengers" style="ellipse;whiteSpace=wrap;html=1;" vertex="1" parent="1">
          <mxGeometry x="2870" y="-574" width="120" height="80" as="geometry" />
        </mxCell>
        <mxCell id="WkxCVV-0QKAh26MaysCN-21" value="Check Ticket Availability" style="ellipse;whiteSpace=wrap;html=1;" vertex="1" parent="1">
          <mxGeometry x="2870" y="-470" width="120" height="80" as="geometry" />
        </mxCell>
        <mxCell id="WkxCVV-0QKAh26MaysCN-22" value="Mange Reservations" style="ellipse;whiteSpace=wrap;html=1;" vertex="1" parent="1">
          <mxGeometry x="2870" y="-360" width="120" height="80" as="geometry" />
        </mxCell>
        <mxCell id="WkxCVV-0QKAh26MaysCN-23" value="Manage Booking" style="ellipse;whiteSpace=wrap;html=1;" vertex="1" parent="1">
          <mxGeometry x="2860" y="-247" width="120" height="80" as="geometry" />
        </mxCell>
        <mxCell id="WkxCVV-0QKAh26MaysCN-24" value="Tìm chuyến bay" style="rounded=0;whiteSpace=wrap;html=1;" vertex="1" parent="1">
          <mxGeometry x="2690" y="-1030" width="120" height="60" as="geometry" />
        </mxCell>
        <mxCell id="WkxCVV-0QKAh26MaysCN-25" value="Nhập thông tin" style="rounded=0;whiteSpace=wrap;html=1;" vertex="1" parent="1">
          <mxGeometry x="2690" y="-940" width="120" height="60" as="geometry" />
        </mxCell>
        <mxCell id="WkxCVV-0QKAh26MaysCN-26" value="Hiển thị danh sách chuyến bay" style="rounded=0;whiteSpace=wrap;html=1;" vertex="1" parent="1">
          <mxGeometry x="2690" y="-850" width="120" height="60" as="geometry" />
        </mxCell>
        <mxCell id="WkxCVV-0QKAh26MaysCN-27" value="Đặt vé" style="rounded=0;whiteSpace=wrap;html=1;" vertex="1" parent="1">
          <mxGeometry x="2870" y="-1030" width="120" height="60" as="geometry" />
        </mxCell>
        <mxCell id="WkxCVV-0QKAh26MaysCN-28" value="Chọn chuyến bay" style="rounded=0;whiteSpace=wrap;html=1;" vertex="1" parent="1">
          <mxGeometry x="2870" y="-940" width="120" height="60" as="geometry" />
        </mxCell>
        <mxCell id="WkxCVV-0QKAh26MaysCN-29" value="Xác nhận và thanh toán" style="rounded=0;whiteSpace=wrap;html=1;" vertex="1" parent="1">
          <mxGeometry x="2870" y="-850" width="120" height="60" as="geometry" />
        </mxCell>
        <mxCell id="WkxCVV-0QKAh26MaysCN-30" value="Quản lý đặt chỗ" style="rounded=0;whiteSpace=wrap;html=1;" vertex="1" parent="1">
          <mxGeometry x="3030" y="-1030" width="120" height="60" as="geometry" />
        </mxCell>
        <mxCell id="WkxCVV-0QKAh26MaysCN-31" value="Tra cứu đặt chỗ" style="rounded=0;whiteSpace=wrap;html=1;" vertex="1" parent="1">
          <mxGeometry x="3030" y="-940" width="120" height="60" as="geometry" />
        </mxCell>
        <mxCell id="WkxCVV-0QKAh26MaysCN-32" value="Hủy/ thay đổi&amp;nbsp;" style="rounded=0;whiteSpace=wrap;html=1;" vertex="1" parent="1">
          <mxGeometry x="3030" y="-850" width="120" height="60" as="geometry" />
        </mxCell>
        <mxCell id="WkxCVV-0QKAh26MaysCN-33" value="Cập nhập thông tin thanh toán" style="rounded=0;whiteSpace=wrap;html=1;" vertex="1" parent="1">
          <mxGeometry x="3198" y="-850" width="120" height="60" as="geometry" />
        </mxCell>
        <mxCell id="WkxCVV-0QKAh26MaysCN-34" value="Xóa tài khoản" style="rounded=0;whiteSpace=wrap;html=1;" vertex="1" parent="1">
          <mxGeometry x="3198" y="-760" width="120" height="60" as="geometry" />
        </mxCell>
        <mxCell id="WkxCVV-0QKAh26MaysCN-35" value="Quản lý tài khoản người dùng" style="rounded=0;whiteSpace=wrap;html=1;" vertex="1" parent="1">
          <mxGeometry x="3198" y="-1030" width="120" height="60" as="geometry" />
        </mxCell>
        <mxCell id="WkxCVV-0QKAh26MaysCN-36" value="Tạo tài khoản" style="rounded=0;whiteSpace=wrap;html=1;" vertex="1" parent="1">
          <mxGeometry x="3198" y="-940" width="120" height="60" as="geometry" />
        </mxCell>
        <mxCell id="WkxCVV-0QKAh26MaysCN-37" value="Quản lý chuyến bay" style="rounded=0;whiteSpace=wrap;html=1;" vertex="1" parent="1">
          <mxGeometry x="3370.24" y="-1030" width="120" height="60" as="geometry" />
        </mxCell>
        <mxCell id="WkxCVV-0QKAh26MaysCN-38" value="Thêm chuyến bay" style="rounded=0;whiteSpace=wrap;html=1;" vertex="1" parent="1">
          <mxGeometry x="3370.24" y="-940" width="120" height="60" as="geometry" />
        </mxCell>
        <mxCell id="WkxCVV-0QKAh26MaysCN-39" value="Sửa chuyến bay" style="rounded=0;whiteSpace=wrap;html=1;" vertex="1" parent="1">
          <mxGeometry x="3370.24" y="-850" width="120" height="60" as="geometry" />
        </mxCell>
        <mxCell id="WkxCVV-0QKAh26MaysCN-40" value="Xóa chuyến bay" style="rounded=0;whiteSpace=wrap;html=1;" vertex="1" parent="1">
          <mxGeometry x="3370.24" y="-760" width="120" height="60" as="geometry" />
        </mxCell>
        <mxCell id="WkxCVV-0QKAh26MaysCN-41" value="Báo cáo" style="rounded=0;whiteSpace=wrap;html=1;" vertex="1" parent="1">
          <mxGeometry x="3550.24" y="-1026" width="120" height="60" as="geometry" />
        </mxCell>
        <mxCell id="WkxCVV-0QKAh26MaysCN-42" value="Báo cáo doanh thu" style="rounded=0;whiteSpace=wrap;html=1;" vertex="1" parent="1">
          <mxGeometry x="3550.24" y="-940" width="120" height="60" as="geometry" />
        </mxCell>
        <mxCell id="WkxCVV-0QKAh26MaysCN-43" value="Báo cáo tình trạng vé" style="rounded=0;whiteSpace=wrap;html=1;" vertex="1" parent="1">
          <mxGeometry x="3550.24" y="-850" width="120" height="60" as="geometry" />
        </mxCell>
        <mxCell id="WkxCVV-0QKAh26MaysCN-44" value="&lt;div&gt;Quản lý đặt vé máy bay&lt;/div&gt;" style="rounded=0;whiteSpace=wrap;html=1;" vertex="1" parent="1">
          <mxGeometry x="2990" y="-1191.5" width="200" height="81" as="geometry" />
        </mxCell>
        <mxCell id="WkxCVV-0QKAh26MaysCN-45" value="" style="endArrow=none;html=1;rounded=0;exitX=0.5;exitY=0;exitDx=0;exitDy=0;" edge="1" parent="1" source="WkxCVV-0QKAh26MaysCN-30">
          <mxGeometry width="50" height="50" relative="1" as="geometry">
            <mxPoint x="3040" y="-1120" as="sourcePoint" />
            <mxPoint x="3090" y="-1110" as="targetPoint" />
            <Array as="points">
              <mxPoint x="3090" y="-1100" />
            </Array>
          </mxGeometry>
        </mxCell>
        <mxCell id="WkxCVV-0QKAh26MaysCN-46" value="" style="endArrow=none;html=1;rounded=0;" edge="1" parent="1">
          <mxGeometry width="50" height="50" relative="1" as="geometry">
            <mxPoint x="2730" y="-1070" as="sourcePoint" />
            <mxPoint x="3620" y="-1070" as="targetPoint" />
            <Array as="points" />
          </mxGeometry>
        </mxCell>
        <mxCell id="WkxCVV-0QKAh26MaysCN-47" value="" style="endArrow=classic;html=1;rounded=0;" edge="1" parent="1">
          <mxGeometry width="50" height="50" relative="1" as="geometry">
            <mxPoint x="2730" y="-1070" as="sourcePoint" />
            <mxPoint x="2730" y="-1040" as="targetPoint" />
          </mxGeometry>
        </mxCell>
        <mxCell id="WkxCVV-0QKAh26MaysCN-48" value="" style="endArrow=classic;html=1;rounded=0;" edge="1" parent="1">
          <mxGeometry width="50" height="50" relative="1" as="geometry">
            <mxPoint x="2929.52" y="-1071" as="sourcePoint" />
            <mxPoint x="2929.52" y="-1041" as="targetPoint" />
          </mxGeometry>
        </mxCell>
        <mxCell id="WkxCVV-0QKAh26MaysCN-49" value="" style="endArrow=classic;html=1;rounded=0;" edge="1" parent="1">
          <mxGeometry width="50" height="50" relative="1" as="geometry">
            <mxPoint x="3089.52" y="-1071" as="sourcePoint" />
            <mxPoint x="3089.52" y="-1041" as="targetPoint" />
          </mxGeometry>
        </mxCell>
        <mxCell id="WkxCVV-0QKAh26MaysCN-50" value="" style="endArrow=classic;html=1;rounded=0;" edge="1" parent="1">
          <mxGeometry width="50" height="50" relative="1" as="geometry">
            <mxPoint x="3257.52" y="-1071" as="sourcePoint" />
            <mxPoint x="3257.52" y="-1041" as="targetPoint" />
          </mxGeometry>
        </mxCell>
        <mxCell id="WkxCVV-0QKAh26MaysCN-51" value="" style="endArrow=classic;html=1;rounded=0;" edge="1" parent="1">
          <mxGeometry width="50" height="50" relative="1" as="geometry">
            <mxPoint x="3429.7599999999998" y="-1071" as="sourcePoint" />
            <mxPoint x="3429.7599999999998" y="-1041" as="targetPoint" />
          </mxGeometry>
        </mxCell>
        <mxCell id="WkxCVV-0QKAh26MaysCN-52" value="" style="endArrow=classic;html=1;rounded=0;" edge="1" parent="1">
          <mxGeometry width="50" height="50" relative="1" as="geometry">
            <mxPoint x="3620.24" y="-1071" as="sourcePoint" />
            <mxPoint x="3620.24" y="-1041" as="targetPoint" />
          </mxGeometry>
        </mxCell>
        <mxCell id="WkxCVV-0QKAh26MaysCN-53" value="" style="endArrow=none;html=1;rounded=0;edgeStyle=elbowEdgeStyle;" edge="1" parent="1">
          <mxGeometry width="50" height="50" relative="1" as="geometry">
            <mxPoint x="2650" y="-820" as="sourcePoint" />
            <mxPoint x="2650" y="-1010" as="targetPoint" />
          </mxGeometry>
        </mxCell>
        <mxCell id="WkxCVV-0QKAh26MaysCN-54" value="" style="endArrow=classic;html=1;rounded=0;" edge="1" parent="1">
          <mxGeometry width="50" height="50" relative="1" as="geometry">
            <mxPoint x="2650" y="-1010" as="sourcePoint" />
            <mxPoint x="2680" y="-1010" as="targetPoint" />
          </mxGeometry>
        </mxCell>
        <mxCell id="WkxCVV-0QKAh26MaysCN-55" value="" style="endArrow=classic;html=1;rounded=0;" edge="1" parent="1">
          <mxGeometry width="50" height="50" relative="1" as="geometry">
            <mxPoint x="2650" y="-910.95" as="sourcePoint" />
            <mxPoint x="2680" y="-910.95" as="targetPoint" />
          </mxGeometry>
        </mxCell>
        <mxCell id="WkxCVV-0QKAh26MaysCN-56" value="" style="endArrow=classic;html=1;rounded=0;" edge="1" parent="1">
          <mxGeometry width="50" height="50" relative="1" as="geometry">
            <mxPoint x="2650" y="-820.48" as="sourcePoint" />
            <mxPoint x="2680" y="-820.48" as="targetPoint" />
          </mxGeometry>
        </mxCell>
        <mxCell id="WkxCVV-0QKAh26MaysCN-57" value="" style="endArrow=none;html=1;rounded=0;edgeStyle=elbowEdgeStyle;" edge="1" parent="1">
          <mxGeometry width="50" height="50" relative="1" as="geometry">
            <mxPoint x="2840" y="-815" as="sourcePoint" />
            <mxPoint x="2840" y="-1005" as="targetPoint" />
          </mxGeometry>
        </mxCell>
        <mxCell id="WkxCVV-0QKAh26MaysCN-58" value="" style="endArrow=classic;html=1;rounded=0;" edge="1" parent="1">
          <mxGeometry width="50" height="50" relative="1" as="geometry">
            <mxPoint x="2840" y="-1005" as="sourcePoint" />
            <mxPoint x="2870" y="-1005" as="targetPoint" />
          </mxGeometry>
        </mxCell>
        <mxCell id="WkxCVV-0QKAh26MaysCN-59" value="" style="endArrow=classic;html=1;rounded=0;" edge="1" parent="1">
          <mxGeometry width="50" height="50" relative="1" as="geometry">
            <mxPoint x="2840" y="-905.95" as="sourcePoint" />
            <mxPoint x="2870" y="-905.95" as="targetPoint" />
          </mxGeometry>
        </mxCell>
        <mxCell id="WkxCVV-0QKAh26MaysCN-60" value="" style="endArrow=classic;html=1;rounded=0;" edge="1" parent="1">
          <mxGeometry width="50" height="50" relative="1" as="geometry">
            <mxPoint x="2840" y="-815.48" as="sourcePoint" />
            <mxPoint x="2870" y="-815.48" as="targetPoint" />
          </mxGeometry>
        </mxCell>
        <mxCell id="WkxCVV-0QKAh26MaysCN-61" value="" style="endArrow=none;html=1;rounded=0;edgeStyle=elbowEdgeStyle;" edge="1" parent="1">
          <mxGeometry width="50" height="50" relative="1" as="geometry">
            <mxPoint x="3000" y="-815.24" as="sourcePoint" />
            <mxPoint x="3000" y="-1005.24" as="targetPoint" />
          </mxGeometry>
        </mxCell>
        <mxCell id="WkxCVV-0QKAh26MaysCN-62" value="" style="endArrow=classic;html=1;rounded=0;" edge="1" parent="1">
          <mxGeometry width="50" height="50" relative="1" as="geometry">
            <mxPoint x="3000" y="-1005.24" as="sourcePoint" />
            <mxPoint x="3030" y="-1005.24" as="targetPoint" />
          </mxGeometry>
        </mxCell>
        <mxCell id="WkxCVV-0QKAh26MaysCN-63" value="" style="endArrow=classic;html=1;rounded=0;" edge="1" parent="1">
          <mxGeometry width="50" height="50" relative="1" as="geometry">
            <mxPoint x="3000" y="-906.19" as="sourcePoint" />
            <mxPoint x="3030" y="-906.19" as="targetPoint" />
          </mxGeometry>
        </mxCell>
        <mxCell id="WkxCVV-0QKAh26MaysCN-64" value="" style="endArrow=classic;html=1;rounded=0;" edge="1" parent="1">
          <mxGeometry width="50" height="50" relative="1" as="geometry">
            <mxPoint x="3000" y="-815.72" as="sourcePoint" />
            <mxPoint x="3030" y="-815.72" as="targetPoint" />
          </mxGeometry>
        </mxCell>
        <mxCell id="WkxCVV-0QKAh26MaysCN-65" value="" style="endArrow=none;html=1;rounded=0;edgeStyle=elbowEdgeStyle;" edge="1" parent="1">
          <mxGeometry width="50" height="50" relative="1" as="geometry">
            <mxPoint x="3170" y="-730" as="sourcePoint" />
            <mxPoint x="3168" y="-1005" as="targetPoint" />
          </mxGeometry>
        </mxCell>
        <mxCell id="WkxCVV-0QKAh26MaysCN-66" value="" style="endArrow=classic;html=1;rounded=0;" edge="1" parent="1">
          <mxGeometry width="50" height="50" relative="1" as="geometry">
            <mxPoint x="3168" y="-1005" as="sourcePoint" />
            <mxPoint x="3198" y="-1005" as="targetPoint" />
          </mxGeometry>
        </mxCell>
        <mxCell id="WkxCVV-0QKAh26MaysCN-67" value="" style="endArrow=classic;html=1;rounded=0;" edge="1" parent="1">
          <mxGeometry width="50" height="50" relative="1" as="geometry">
            <mxPoint x="3168" y="-905.95" as="sourcePoint" />
            <mxPoint x="3198" y="-905.95" as="targetPoint" />
          </mxGeometry>
        </mxCell>
        <mxCell id="WkxCVV-0QKAh26MaysCN-68" value="" style="endArrow=classic;html=1;rounded=0;" edge="1" parent="1">
          <mxGeometry width="50" height="50" relative="1" as="geometry">
            <mxPoint x="3168" y="-815.48" as="sourcePoint" />
            <mxPoint x="3198" y="-815.48" as="targetPoint" />
          </mxGeometry>
        </mxCell>
        <mxCell id="WkxCVV-0QKAh26MaysCN-69" value="" style="endArrow=classic;html=1;rounded=0;" edge="1" parent="1">
          <mxGeometry width="50" height="50" relative="1" as="geometry">
            <mxPoint x="3340.24" y="-1010" as="sourcePoint" />
            <mxPoint x="3370.24" y="-1010" as="targetPoint" />
          </mxGeometry>
        </mxCell>
        <mxCell id="WkxCVV-0QKAh26MaysCN-70" value="" style="endArrow=classic;html=1;rounded=0;" edge="1" parent="1">
          <mxGeometry width="50" height="50" relative="1" as="geometry">
            <mxPoint x="3340.24" y="-910.95" as="sourcePoint" />
            <mxPoint x="3370.24" y="-910.95" as="targetPoint" />
          </mxGeometry>
        </mxCell>
        <mxCell id="WkxCVV-0QKAh26MaysCN-71" value="" style="endArrow=classic;html=1;rounded=0;" edge="1" parent="1">
          <mxGeometry width="50" height="50" relative="1" as="geometry">
            <mxPoint x="3340.24" y="-820.48" as="sourcePoint" />
            <mxPoint x="3370.24" y="-820.48" as="targetPoint" />
          </mxGeometry>
        </mxCell>
        <mxCell id="WkxCVV-0QKAh26MaysCN-72" value="" style="endArrow=none;html=1;rounded=0;edgeStyle=elbowEdgeStyle;" edge="1" parent="1">
          <mxGeometry width="50" height="50" relative="1" as="geometry">
            <mxPoint x="3520.24" y="-815.24" as="sourcePoint" />
            <mxPoint x="3520.24" y="-1005.24" as="targetPoint" />
          </mxGeometry>
        </mxCell>
        <mxCell id="WkxCVV-0QKAh26MaysCN-73" value="" style="endArrow=classic;html=1;rounded=0;" edge="1" parent="1">
          <mxGeometry width="50" height="50" relative="1" as="geometry">
            <mxPoint x="3520.24" y="-1005.24" as="sourcePoint" />
            <mxPoint x="3550.24" y="-1005.24" as="targetPoint" />
          </mxGeometry>
        </mxCell>
        <mxCell id="WkxCVV-0QKAh26MaysCN-74" value="" style="endArrow=classic;html=1;rounded=0;" edge="1" parent="1">
          <mxGeometry width="50" height="50" relative="1" as="geometry">
            <mxPoint x="3520.24" y="-906.19" as="sourcePoint" />
            <mxPoint x="3550.24" y="-906.19" as="targetPoint" />
          </mxGeometry>
        </mxCell>
        <mxCell id="WkxCVV-0QKAh26MaysCN-75" value="" style="endArrow=classic;html=1;rounded=0;" edge="1" parent="1">
          <mxGeometry width="50" height="50" relative="1" as="geometry">
            <mxPoint x="3520.24" y="-815.72" as="sourcePoint" />
            <mxPoint x="3550.24" y="-815.72" as="targetPoint" />
          </mxGeometry>
        </mxCell>
        <mxCell id="WkxCVV-0QKAh26MaysCN-76" value="" style="endArrow=classic;html=1;rounded=0;" edge="1" parent="1">
          <mxGeometry width="50" height="50" relative="1" as="geometry">
            <mxPoint x="3168" y="-730" as="sourcePoint" />
            <mxPoint x="3198" y="-730" as="targetPoint" />
          </mxGeometry>
        </mxCell>
        <mxCell id="WkxCVV-0QKAh26MaysCN-77" value="" style="endArrow=classic;html=1;rounded=0;" edge="1" parent="1">
          <mxGeometry width="50" height="50" relative="1" as="geometry">
            <mxPoint x="3340.24" y="-730.48" as="sourcePoint" />
            <mxPoint x="3370.24" y="-730.48" as="targetPoint" />
          </mxGeometry>
        </mxCell>
        <mxCell id="WkxCVV-0QKAh26MaysCN-78" value="" style="endArrow=none;html=1;rounded=0;" edge="1" parent="1">
          <mxGeometry width="50" height="50" relative="1" as="geometry">
            <mxPoint x="3340" y="-730" as="sourcePoint" />
            <mxPoint x="3340" y="-1010" as="targetPoint" />
          </mxGeometry>
        </mxCell>
      </root>
    </mxGraphModel>
  </diagram>
</mxfile>
